<svg xmlns="http://www.w3.org/2000/svg" width="1920.001" height="1080.001" viewBox="0 0 1920.001 1080.001">
  <defs>
    <style>
      .cls-1 {
        fill: #fff;
      }
    </style>
  </defs>
  <path id="减去_8" data-name="减去 8" class="cls-1" d="M1920,1080H0v-.327H0v0H0V0H1919.323c-.1.026-11.615,2.815-33.155,8.757-19.743,5.446-52.059,14.7-93.9,27.855C1745.25,51.4,1696.039,67.993,1646.006,85.94c-62.544,22.434-126.561,47.055-190.271,73.178-13.315,5.46-26.116,11.406-38.048,17.675a376.816,376.816,0,0,0-32.57,19.217,341.844,341.844,0,0,0-27.875,20.538c-8.24,6.75-16.3,14.03-23.961,21.638-7.133,7.085-13.947,14.45-20.83,22.517-6.132,7.188-12.177,14.768-18.48,23.175-11.714,15.625-22.556,31.8-33.04,47.439l-.008.012c-13.265,19.787-26.981,40.249-42.578,59.768-8.4,10.511-16.658,19.918-25.247,28.759a334.888,334.888,0,0,1-30,27.407,345.5,345.5,0,0,1-36.33,25.608,403.046,403.046,0,0,1-44.249,23.361,519.5,519.5,0,0,1-53.754,20.667c-20.021,6.5-41.837,12.4-64.841,17.524l-8.762-8.87a1.837,1.837,0,0,0-2.621,0,1.891,1.891,0,0,0,0,2.65l7.08,7.167c-21.165,4.6-43.965,8.708-67.765,12.2-24.6,3.611-51.041,6.684-78.6,9.133-15.962,1.419-32.1,3.288-47.959,5.556-15.523,2.219-31.213,4.882-46.635,7.914-15.082,2.965-30.322,6.365-45.3,10.106-14.634,3.655-29.419,7.736-43.946,12.131-28.027,8.478-56.217,18.462-83.787,29.674-26.192,10.651-52.511,22.689-78.228,35.781-88.962,45.289-174.84,105.045-255.25,177.61-31.59,28.508-62.4,59.085-91.576,90.882-23.34,25.438-45.693,51.709-66.438,78.085-18.458,23.469-32.2,42.673-40.471,54.651C4.783,1071.961.192,1079.361,0,1079.67H0l1919.57-.025L1919.326,0H1920V1080Z" transform="translate(0.001)"/>
</svg>
